<?xml version="1.0" encoding="UTF-8"?>
<svg id="_圖層_2" data-name="圖層 2" xmlns="http://www.w3.org/2000/svg" viewBox="0 0 160.86 24.23">
  <defs>
    <style>
      .cls-1 {
        fill: #44403f;
        stroke-width: 0px;
      }
    </style>
  </defs>
  <g id="_レイヤー_1" data-name="レイヤー 1">
    <g>
      <path class="cls-1" d="m9.59.02v1.89c-1,.24-1.5,1.04-1.5,2.39v15.88c0,.61.09,1.09.26,1.42.15.27.46.51.94.7v1.93c-.36,0-.7-.03-1-.09-.3-.06-.7-.17-1.2-.34-1.19-.41-2.27-1.03-3.24-1.88-.97-.84-1.76-1.85-2.39-3.02-.97-1.83-1.45-4-1.45-6.5s.43-4.57,1.3-6.45c.86-1.88,2.1-3.35,3.72-4.42.93-.63,1.93-1.07,3-1.35.44-.11.97-.17,1.57-.17Zm9.11,20.9c-.46.46-1.06.92-1.82,1.39-.76.47-1.47.84-2.14,1.12-.61.24-1.29.43-2.04.58-.75.15-1.4.22-1.97.22v-1.93c.33-.08.58-.18.74-.29.16-.11.3-.27.42-.48.19-.35.29-.8.29-1.35v-4.98c0-.44-.09-.76-.26-.96-.08-.11-.16-.18-.24-.21-.08-.03-.34-.09-.78-.2-.55-.14-.82-.45-.82-.96,0-.3.13-.52.38-.68.26-.16.63-.24,1.13-.24h6.81c.51,0,.87.07,1.08.21.21.14.32.39.32.74,0,.22-.04.4-.13.54-.09.14-.24.29-.47.45-.23.16-.37.31-.43.44-.06.14-.09.39-.09.75v5.82ZM10.99,1.88V.03c1.85.17,3.38.51,4.57,1.02.35.16.63.24.82.24.18,0,.32-.04.42-.13.1-.09.29-.33.59-.73.2-.28.46-.43.77-.43s.54.09.67.26c.13.18.2.47.2.88v6.64c0,.86-.32,1.3-.96,1.3-.32,0-.55-.09-.71-.26-.15-.17-.3-.51-.44-1.01-.17-.64-.48-1.38-.92-2.23-.44-.85-.87-1.52-1.28-2-.47-.57-.99-.99-1.57-1.25-.58-.27-1.3-.42-2.17-.47Z"/>
      <path class="cls-1" d="m31.34,1.86c-.58.2-.99.48-1.23.84-.24.35-.36.87-.36,1.55v15.25c0,1,.14,1.71.41,2.12.22.34.61.59,1.18.73v1.88c-2.53-.2-4.64-1.15-6.35-2.85-2.22-2.21-3.33-5.28-3.33-9.23,0-1.98.29-3.77.88-5.37.59-1.6,1.45-2.95,2.6-4.07.88-.85,1.82-1.5,2.83-1.94,1.01-.44,2.13-.69,3.36-.75v1.84Zm1.4,0V.02c1.23.06,2.35.31,3.37.75,1.02.44,1.96,1.09,2.84,1.94,2.32,2.26,3.48,5.41,3.48,9.43s-1.11,7.02-3.33,9.23c-1.71,1.71-3.83,2.66-6.36,2.85v-1.88c.3-.07.53-.16.69-.26.16-.11.32-.26.45-.47.31-.47.46-1.17.46-2.12V4.25c0-.6-.1-1.08-.31-1.43-.14-.24-.3-.43-.49-.56-.19-.14-.46-.27-.81-.39Z"/>
      <path class="cls-1" d="m54.22,23.77h-8.05c-.41,0-.73-.08-.95-.23-.22-.15-.33-.37-.33-.66,0-.47.23-.77.68-.92.38-.12.59-.2.66-.23.06-.03.13-.09.2-.2.14-.18.2-.47.2-.87V3.58c0-.4-.07-.69-.2-.87-.07-.1-.13-.17-.2-.2-.06-.03-.28-.1-.66-.23-.46-.15-.68-.45-.68-.92,0-.28.11-.5.33-.66.22-.15.54-.23.95-.23h8.5c.41,0,.73.08.95.23.22.15.33.37.33.66,0,.47-.23.77-.68.92-.38.13-.59.2-.66.23-.06.03-.13.09-.2.2-.14.18-.2.47-.2.87v17.08c0,.64.16,1.01.49,1.13l.53.17c.43.14.65.44.65.92,0,.59-.4.89-1.21.89h-.44Zm6.76-16.53l5.15,13.48c.14.36.28.64.43.83.15.19.34.33.58.44.24.11.39.2.46.26.16.16.24.37.24.63,0,.6-.43.9-1.28.9h-8.58c-.41,0-.73-.09-.95-.26-.22-.17-.33-.42-.33-.73,0-.36.21-.65.63-.85.26-.12.44-.23.53-.32.09-.09.14-.2.15-.35,0-.08-.05-.26-.14-.55l-2.18-6.52c-.2-.6-.31-1.11-.31-1.54,0-.4.16-.83.49-1.3l4.08-5.75c.39-.53.58-1.09.58-1.67,0-.32-.09-.61-.26-.89-.17-.27-.4-.47-.68-.58l-.61-.26c-.39-.16-.58-.43-.58-.8,0-.31.12-.56.36-.75.16-.12.42-.19.78-.19h6.07c.4,0,.71.09.93.26.22.18.33.42.33.74,0,.48-.26.82-.78,1.02l-.9.36c-.38.14-.85.44-1.43.92-.43.36-.97.97-1.6,1.83l-1.18,1.62Z"/>
      <path class="cls-1" d="m71.62,16.96V3.58c0-.4-.07-.69-.2-.87-.07-.1-.13-.17-.2-.2-.06-.03-.28-.1-.66-.23-.46-.15-.68-.45-.68-.9,0-.3.11-.52.33-.67.22-.15.54-.23.95-.23h8.5l.61.07c.19.06.35.16.48.31.13.15.19.32.19.53,0,.46-.23.76-.68.9-.38.13-.59.2-.66.23-.06.03-.13.09-.2.2-.14.18-.2.47-.2.87v14.31c0,.97.03,1.64.08,2.02.05.38.16.73.32,1.03.15.28.31.49.49.61.18.13.53.27,1.04.43v2.24h-.38c-1.48,0-2.71-.13-3.69-.39-1.15-.31-2.16-.76-3.02-1.36-.86-.6-1.48-1.28-1.84-2.03-.39-.8-.58-1.96-.58-3.48Zm11.07,7.27v-2.24c1.14-.15,2.09-.61,2.85-1.4.86-.9,1.3-2.19,1.3-3.87V5.6c0-1.56-.6-2.64-1.79-3.26-.35-.18-.58-.34-.69-.47-.11-.13-.16-.32-.16-.57,0-.3.11-.51.32-.63.22-.12.57-.19,1.06-.19h4.18c.35,0,.59,0,.71.03s.24.06.35.13c.3.17.44.4.44.7,0,.25-.09.46-.27.63-.06.06-.3.21-.73.46-.5.27-.89.69-1.18,1.25-.28.56-.43,1.2-.43,1.92v11.14c0,1.91-.42,3.48-1.26,4.71-.61.91-1.5,1.64-2.64,2.18-.57.27-1.25.47-2.05.6Z"/>
      <path class="cls-1" d="m103.2.02v2.06c-.67.1-1.17.4-1.5.89-.33.49-.49,1.19-.49,2.1v14.83c0,.26.05.54.16.83.11.29.25.54.42.74.18.23.38.39.58.49.2.1.48.16.84.2v2.08c-2.21,0-4.12-.57-5.75-1.72-1.43-1.01-2.51-2.37-3.24-4.09-.73-1.71-1.09-3.74-1.09-6.08,0-1.72.24-3.32.71-4.8.47-1.48,1.16-2.77,2.06-3.86.91-1.1,2-1.99,3.27-2.66,1.27-.67,2.49-1.01,3.66-1.01l.39.02Zm1.35,2.08V.03c.56.09,1.01.19,1.36.29.35.1.98.32,1.89.65.58.2.97.31,1.16.31.33,0,.58-.15.75-.44l.22-.41c.14-.27.39-.41.77-.41.31,0,.54.09.71.27.16.18.25.45.25.8v7.1c0,.46-.1.78-.31.99-.2.2-.44.31-.7.31s-.49-.09-.66-.26c-.17-.18-.3-.46-.4-.86-.24-.9-.47-1.6-.7-2.12-.49-1.08-1.05-1.96-1.67-2.63-.42-.45-.84-.8-1.26-1.05-.42-.24-.89-.4-1.4-.47Zm.05,22.13v-2.08c.89-.07,1.82-.4,2.8-1.01.52-.33.99-.77,1.4-1.32.41-.55.72-1.16.92-1.82.11-.36.25-.62.4-.78s.36-.23.61-.23c.27,0,.5.1.68.31.18.2.27.46.27.77,0,.51-.2,1.13-.59,1.86-.39.73-.9,1.4-1.51,2.01-.75.75-1.52,1.31-2.31,1.67-.79.36-1.68.57-2.67.61Z"/>
      <path class="cls-1" d="m123.93,23.77h-8.05c-.41,0-.73-.08-.95-.23-.22-.15-.33-.37-.33-.66,0-.47.23-.77.68-.92.38-.12.59-.2.66-.23.06-.03.13-.09.2-.2.14-.18.2-.47.2-.87V3.58c0-.4-.07-.69-.2-.87-.07-.1-.13-.17-.2-.2-.06-.03-.28-.1-.66-.23-.46-.15-.68-.45-.68-.92,0-.28.11-.5.33-.66.22-.15.54-.23.95-.23h8.5c.81,0,1.21.3,1.21.89,0,.48-.22.78-.65.92l-.53.17c-.33.11-.49.49-.49,1.13v17.08c0,.64.16,1.01.49,1.13l.53.17c.43.14.65.44.65.92,0,.59-.4.89-1.21.89h-.44Zm1.43-12.74h2.78V3.58c0-.64-.16-1.01-.49-1.13l-.55-.17c-.43-.14-.65-.44-.65-.92,0-.59.41-.89,1.23-.89h8.5c.85,0,1.28.3,1.28.89,0,.47-.23.77-.68.92-.38.13-.59.2-.66.23-.06.03-.13.09-.2.2-.14.18-.2.47-.2.87v17.01c0,.63.17,1.01.51,1.14l.55.19c.45.15.68.46.68.94,0,.6-.43.9-1.28.9h-8.53c-.8,0-1.19-.3-1.19-.9,0-.48.22-.79.65-.94l.55-.19c.33-.1.49-.48.49-1.14v-7.88h-2.78v-1.69Z"/>
      <path class="cls-1" d="m146.29,4.81l.87,3.53-3.02,11.02c-.09.32-.14.61-.14.89,0,.72.34,1.23,1.01,1.54l.6.27c.38.17.56.45.56.85,0,.57-.42.85-1.25.85h-4.33c-.42,0-.75-.09-1-.26-.24-.18-.37-.42-.37-.73,0-.33.25-.6.75-.82.47-.2.81-.39,1.03-.55.22-.16.44-.39.64-.67.32-.47.58-1.09.78-1.86l3.86-14.06Zm1.18-4.33h6.88l4.74,20.05c.09.35.19.67.31.94.1.22.33.39.68.53.3.13.5.25.61.38.11.13.17.3.17.51,0,.59-.44.89-1.33.89h-8.51c-.34,0-.61-.08-.82-.25-.2-.16-.31-.38-.31-.66,0-.23.05-.4.14-.51.09-.11.3-.26.61-.43.23-.11.39-.24.48-.38.09-.14.14-.31.14-.51,0-.19-.02-.36-.05-.51l-.55-2.47h-4.76l.46-2.03h3.82l-3.14-13.87.43-1.67Z"/>
    </g>
  </g>
</svg>