<?xml version="1.0" encoding="utf-8"?>
<!-- Generator: Adobe Illustrator 28.0.0, SVG Export Plug-In . SVG Version: 6.00 Build 0)  -->
<svg version="1.1" id="_圖層_2" xmlns="http://www.w3.org/2000/svg" xmlns:xlink="http://www.w3.org/1999/xlink" x="0px" y="0px"
	 viewBox="0 0 30 40.1" style="enable-background:new 0 0 30 40.1;" xml:space="preserve">
<style type="text/css">
	.st0{fill:#B81A35;}
</style>
<g id="_圖層_2-2">
	<g>
		<path class="st0" d="M15.3,10.2c3.5,0.1,7.3,1.2,10.1,3.3c2.4,1.8,3.2,4.9,3.3,7.8c0.1,5.3-3.1,9.6-6.7,13.2
			c-1.7,1.7-3.6,3.5-5.9,4.2c-2.2,0.7-4.2-0.6-5.9-2c-2.2-1.8-4.1-4.1-5.7-6.4c-1.4-2.1-2.7-4.4-3.2-6.8c-0.3-1.7-0.4-3.7,0-5.3
			C1.9,16.6,3,15,4.2,13.9C7,11.2,11.5,10,15.3,10.2c0.8,0.1,0.8-1.2,0-1.2C9,8.6,0.4,12.3,0,19.5c-0.2,3.3,0.6,6.2,2.1,9.1
			s3.6,5.5,5.9,7.7c1.8,1.7,4.1,3.6,6.6,3.8c2.4,0.1,4.6-1.5,6.3-3c4.1-3.4,8.3-8.3,8.9-13.7c0.4-3.3-0.2-7.5-2.6-10
			c-3-3-7.9-4.4-12-4.5C14.5,8.9,14.5,10.2,15.3,10.2z"/>
		<path class="st0" d="M7.4,17.8l0,1.2c0,0.2,0.1,0.3,0.2,0.4s0.3,0.2,0.4,0.2s0.3-0.1,0.4-0.2s0.2-0.3,0.2-0.4l0-1.2
			c0-0.2-0.1-0.3-0.2-0.4S8.2,17.2,8,17.2s-0.3,0.1-0.4,0.2S7.4,17.7,7.4,17.8L7.4,17.8z"/>
		<path class="st0" d="M9.9,13.5c-0.1,0.5-0.2,1-0.1,1.4c0,0.1,0,0.2,0.1,0.2c0,0.1,0.1,0.1,0.1,0.2c0.1,0.1,0.3,0.2,0.4,0.2
			s0.3-0.1,0.4-0.2s0.2-0.3,0.2-0.4c0-0.3,0-0.5,0-0.8l0,0.2c0-0.2,0.1-0.3,0.1-0.5s0-0.3-0.1-0.5c-0.1-0.1-0.2-0.2-0.4-0.3
			c-0.2,0-0.3,0-0.5,0.1S9.9,13.3,9.9,13.5L9.9,13.5L9.9,13.5z"/>
		<path class="st0" d="M12.1,17.9c0,0.4,0,0.8,0.1,1.2c0,0.1,0.2,0.3,0.3,0.4s0.3,0.1,0.5,0.1s0.3-0.1,0.4-0.3
			c0.1-0.1,0.1-0.3,0.1-0.5c0-0.1,0-0.2-0.1-0.3l0,0.2c0-0.2,0-0.5,0-0.8c0-0.1-0.1-0.3-0.2-0.4s-0.3-0.2-0.4-0.2s-0.3,0.1-0.4,0.2
			l-0.1,0.1C12.2,17.7,12.2,17.8,12.1,17.9L12.1,17.9L12.1,17.9z"/>
		<path class="st0" d="M14.6,13.9v1c0,0.2,0.1,0.3,0.2,0.4s0.3,0.2,0.4,0.2s0.3-0.1,0.4-0.2s0.2-0.3,0.2-0.4v-1
			c0-0.2-0.1-0.3-0.2-0.4s-0.3-0.2-0.4-0.2s-0.3,0.1-0.4,0.2S14.6,13.8,14.6,13.9L14.6,13.9z"/>
		<path class="st0" d="M19.4,13.8c0,0,0,0.1,0,0.1L19.4,13.8c0,0.2,0,0.5,0,0.8l0-0.2c0,0.1,0,0.2,0,0.3c0,0.2,0,0.3,0.1,0.5
			c0.1,0.1,0.2,0.2,0.4,0.3c0.2,0,0.3,0,0.5-0.1c0.1-0.1,0.2-0.2,0.3-0.4c0.1-0.3,0.1-0.5,0.1-0.8s0-0.5-0.1-0.8
			c0-0.1-0.2-0.3-0.3-0.4C20.2,13,20,13,19.8,13.1s-0.3,0.1-0.4,0.3l-0.1,0.1C19.3,13.6,19.3,13.7,19.4,13.8L19.4,13.8L19.4,13.8z"
			/>
		<path class="st0" d="M24.1,14.1V15c0,0.2,0.1,0.3,0.2,0.4s0.3,0.2,0.4,0.2s0.3-0.1,0.4-0.2s0.2-0.3,0.2-0.4v-0.9
			c0-0.2-0.1-0.3-0.2-0.4s-0.3-0.2-0.4-0.2s-0.3,0.1-0.4,0.2S24.1,13.9,24.1,14.1L24.1,14.1z"/>
		<path class="st0" d="M5.1,14v0.8c0,0.2,0.1,0.3,0.2,0.4c0.1,0.1,0.1,0.1,0.2,0.1c0.1,0,0.2,0.1,0.2,0.1c0.2,0,0.3-0.1,0.4-0.2
			s0.2-0.3,0.2-0.4V14c0-0.2-0.1-0.3-0.2-0.4c-0.1-0.1-0.1-0.1-0.2-0.1c-0.1,0-0.2-0.1-0.2-0.1c-0.2,0-0.3,0.1-0.4,0.2
			S5.1,13.8,5.1,14L5.1,14z"/>
		<path class="st0" d="M3.1,17.9L3.1,17.9c0,0,0-0.1,0-0.1c0.1,0.4,0.1,0.9,0,1.3c0,0.1,0.1,0.3,0.2,0.4s0.3,0.2,0.4,0.2
			s0.3-0.1,0.4-0.2s0.2-0.3,0.2-0.4c0-0.5,0-1-0.1-1.5c0-0.1-0.2-0.3-0.3-0.4c-0.1-0.1-0.3-0.1-0.5-0.1s-0.3,0.1-0.4,0.3l-0.1,0.1
			C3,17.6,3,17.8,3.1,17.9L3.1,17.9L3.1,17.9z"/>
		<path class="st0" d="M5.1,21.9c0,0,0,0.1,0,0.1L5.1,21.9c0.1,0.4,0.1,0.7,0,1.1c0,0.1,0.1,0.3,0.2,0.4s0.3,0.2,0.4,0.2
			s0.3-0.1,0.4-0.2l0.1-0.1c0.1-0.1,0.1-0.2,0.1-0.3c0-0.5,0-1-0.1-1.4c0-0.1-0.2-0.3-0.3-0.4c-0.1-0.1-0.3-0.1-0.5-0.1
			s-0.3,0.1-0.4,0.3l-0.1,0.1C5,21.7,5,21.8,5.1,21.9L5.1,21.9z"/>
		<path class="st0" d="M9.9,22.1c0,0.2,0,0.4,0,0.7l0-0.2c0,0.1,0,0.2-0.1,0.3c0,0.2,0,0.3,0.1,0.5c0.1,0.1,0.2,0.2,0.4,0.3
			c0.2,0,0.3,0,0.5-0.1c0.1-0.1,0.2-0.2,0.3-0.4c0.1-0.4,0.1-0.7,0.1-1.1c0-0.1,0-0.2-0.1-0.2c0-0.1-0.1-0.1-0.1-0.2
			c-0.1-0.1-0.3-0.2-0.4-0.2s-0.3,0.1-0.4,0.2l-0.1,0.1C9.9,21.9,9.9,22,9.9,22.1L9.9,22.1L9.9,22.1z"/>
		<path class="st0" d="M17.1,17.6l-0.2,1.1c0,0.2,0,0.3,0.1,0.5c0.1,0.1,0.2,0.2,0.4,0.3c0.2,0,0.3,0,0.5-0.1
			c0.1-0.1,0.2-0.2,0.3-0.4l0.2-1.1c0-0.2,0-0.3-0.1-0.5c-0.1-0.1-0.2-0.2-0.4-0.3c-0.2,0-0.3,0-0.5,0.1
			C17.3,17.3,17.2,17.4,17.1,17.6L17.1,17.6z"/>
		<path class="st0" d="M21.5,18.2v0.4c0,0.1,0,0.2,0,0.2c0,0.1,0.1,0.1,0.1,0.2c0.1,0.1,0.1,0.1,0.2,0.1c0.1,0,0.1,0.1,0.2,0l0.2,0
			c0.1,0,0.2-0.1,0.3-0.2l0.1-0.1c0.1-0.1,0.1-0.2,0.1-0.3v-0.4c0-0.1,0-0.2,0-0.2c0-0.1-0.1-0.1-0.1-0.2c-0.1-0.1-0.1-0.1-0.2-0.1
			c-0.1,0-0.1-0.1-0.2,0l-0.2,0c-0.1,0-0.2,0.1-0.3,0.2l-0.1,0.1C21.5,18,21.5,18.1,21.5,18.2L21.5,18.2z"/>
		<path class="st0" d="M26.2,17.9c0,0.2-0.1,0.3-0.1,0.5s0,0.4,0,0.5c0,0.1,0.1,0.1,0.1,0.2c0,0.1,0.1,0.1,0.2,0.2
			c0.1,0,0.1,0.1,0.2,0.1c0.1,0,0.2,0,0.2,0c0.1,0,0.3-0.1,0.4-0.3l0.1-0.1c0-0.1,0-0.2,0-0.3l0,0c0,0,0,0.1,0,0.1
			c0-0.1,0-0.3,0-0.4l0,0.2c0-0.1,0-0.2,0.1-0.3c0-0.1,0-0.2,0-0.2c0-0.1,0-0.2-0.1-0.2c0-0.1-0.1-0.1-0.2-0.2
			c-0.1-0.1-0.1-0.1-0.2-0.1l-0.2,0c-0.1,0-0.2,0-0.3,0.1l-0.1,0.1C26.3,17.7,26.2,17.8,26.2,17.9L26.2,17.9L26.2,17.9z"/>
		<path class="st0" d="M24.2,21.7l-0.4,0.9c0,0.1-0.1,0.1-0.1,0.2c0,0.1,0,0.2,0,0.2c0,0.1,0.1,0.3,0.3,0.4c0.1,0.1,0.3,0.1,0.5,0.1
			c0.1,0,0.3-0.1,0.4-0.3l0.4-0.9c0-0.1,0.1-0.1,0.1-0.2c0-0.1,0-0.2,0-0.2c0-0.1-0.1-0.3-0.3-0.4c-0.1-0.1-0.3-0.1-0.5-0.1
			C24.4,21.5,24.3,21.6,24.2,21.7L24.2,21.7z"/>
		<path class="st0" d="M19.5,22.1l-0.1,1c0,0.1,0.1,0.3,0.2,0.4s0.3,0.2,0.4,0.2s0.3-0.1,0.4-0.2l0.1-0.1c0.1-0.1,0.1-0.2,0.1-0.3
			l0.1-1c0-0.1-0.1-0.3-0.2-0.4s-0.3-0.2-0.4-0.2s-0.3,0.1-0.4,0.2l-0.1,0.1C19.5,21.9,19.5,22,19.5,22.1L19.5,22.1z"/>
		<path class="st0" d="M14.6,22.1v0.6c0,0.1,0,0.2,0.1,0.2c0,0.1,0.1,0.1,0.1,0.2c0.1,0.1,0.1,0.1,0.2,0.1c0.1,0,0.1,0.1,0.2,0
			l0.2,0c0.1,0,0.2-0.1,0.3-0.2c0.1-0.1,0.2-0.3,0.2-0.4v-0.6c0-0.1,0-0.2-0.1-0.2c0-0.1-0.1-0.1-0.1-0.2c-0.1-0.1-0.1-0.1-0.2-0.1
			c-0.1,0-0.1-0.1-0.2,0l-0.2,0c-0.1,0-0.2,0.1-0.3,0.2C14.6,21.8,14.6,22,14.6,22.1L14.6,22.1z"/>
		<path class="st0" d="M3.1,26.8L2.9,28c0,0.1,0,0.2,0,0.2c0,0.1,0,0.2,0.1,0.2c0.1,0.1,0.2,0.2,0.4,0.3c0.2,0,0.3,0,0.5-0.1
			c0.1-0.1,0.3-0.2,0.3-0.4l0.2-1.1c0-0.1,0-0.2,0-0.2c0-0.1,0-0.2-0.1-0.2c-0.1-0.1-0.2-0.2-0.4-0.3c-0.2,0-0.3,0-0.5,0.1
			C3.2,26.5,3.1,26.7,3.1,26.8L3.1,26.8z"/>
		<path class="st0" d="M7.4,27c0,0.1,0,0.2,0,0.2L7.4,27c0.1,0.3,0.1,0.5,0,0.8c0,0.1,0,0.2,0.1,0.2c0,0.1,0.1,0.1,0.1,0.2
			c0.1,0.1,0.3,0.2,0.4,0.2s0.3-0.1,0.4-0.2L8.6,28c0.1-0.1,0.1-0.2,0.1-0.3c0-0.4,0-0.7-0.1-1.1c0-0.1-0.2-0.3-0.3-0.4
			c-0.1,0-0.1-0.1-0.2-0.1c-0.1,0-0.2,0-0.2,0c-0.2,0-0.3,0.1-0.4,0.3C7.4,26.6,7.4,26.8,7.4,27L7.4,27L7.4,27z"/>
		<path class="st0" d="M12.2,26.8l-0.1,0.6c0,0.1,0,0.2,0.1,0.2c0,0.1,0.1,0.1,0.1,0.2c0.1,0.1,0.1,0.1,0.2,0.1c0.1,0,0.1,0.1,0.2,0
			l0.2,0c0.1,0,0.2-0.1,0.3-0.2l0.1-0.1c0.1-0.1,0.1-0.2,0.1-0.3l0.1-0.6c0-0.1,0-0.2-0.1-0.2c0-0.1-0.1-0.1-0.1-0.2
			c-0.1-0.1-0.1-0.1-0.2-0.1c-0.1,0-0.1-0.1-0.2,0l-0.2,0c-0.1,0-0.2,0.1-0.3,0.2l-0.1,0.1C12.2,26.6,12.2,26.7,12.2,26.8L12.2,26.8
			z"/>
		<path class="st0" d="M16.8,27c0,0.2,0.1,0.3,0.1,0.5l0-0.2c0,0.2,0,0.3,0,0.5s0.1,0.3,0.2,0.4s0.3,0.2,0.4,0.2s0.3-0.1,0.4-0.2
			s0.2-0.3,0.2-0.4c0-0.4-0.1-0.8-0.1-1.2c0-0.1-0.2-0.3-0.3-0.4s-0.3-0.1-0.5-0.1s-0.3,0.1-0.4,0.3S16.7,26.8,16.8,27
			C16.8,27,16.8,27,16.8,27z"/>
		<path class="st0" d="M21.5,26.5c0,0.2-0.1,0.5-0.1,0.7s0,0.5,0.1,0.7c0,0.1,0.2,0.3,0.3,0.4c0.1,0.1,0.3,0.1,0.5,0.1
			s0.3-0.1,0.4-0.3l0.1-0.1c0-0.1,0-0.2,0-0.3c0-0.1,0-0.1,0-0.2l0,0.2c0-0.3,0-0.6,0-0.8l0,0.2c0,0,0,0,0,0c0-0.1,0-0.2,0-0.2
			c0-0.1,0-0.2-0.1-0.2c-0.1-0.1-0.2-0.2-0.4-0.3c-0.2,0-0.3,0-0.5,0.1C21.7,26.2,21.6,26.3,21.5,26.5L21.5,26.5L21.5,26.5z"/>
		<path class="st0" d="M26.1,27.4c0,0,0,0.1,0.1,0.1L26.1,27.4c0.1,0.1,0.1,0.1,0.1,0.2L26.1,27.4c0.1,0.2,0.1,0.3,0.1,0.3l0-0.2
			c0,0,0,0,0,0c0,0.1,0,0.2,0,0.2c0,0.1,0,0.2,0.1,0.2c0,0.1,0.1,0.1,0.2,0.2c0.1,0.1,0.1,0.1,0.2,0.1l0.2,0c0.1,0,0.2,0,0.3-0.1
			l0.1-0.1c0.1-0.1,0.1-0.2,0.2-0.3c0-0.1,0-0.2,0-0.4s0-0.2,0-0.4c0-0.1,0-0.1,0-0.2c0-0.1-0.1-0.2-0.1-0.3
			c-0.1-0.1-0.2-0.2-0.4-0.3c-0.1,0-0.2,0-0.2,0c-0.1,0-0.2,0-0.2,0.1c-0.1,0.1-0.2,0.2-0.3,0.4S26,27.2,26.1,27.4L26.1,27.4
			L26.1,27.4z"/>
		<path class="st0" d="M24,30.7c-0.1,0.3-0.2,0.7-0.2,1.1c0,0.2,0.1,0.3,0.2,0.4s0.3,0.2,0.4,0.2s0.3-0.1,0.4-0.2s0.2-0.3,0.2-0.4
			c0-0.1,0-0.2,0-0.3l0,0.2c0-0.2,0.1-0.4,0.2-0.6c0-0.1,0-0.2,0-0.2c0-0.1,0-0.2-0.1-0.2c-0.1-0.1-0.2-0.2-0.4-0.3
			c-0.2,0-0.3,0-0.5,0.1l-0.1,0.1C24.1,30.5,24.1,30.6,24,30.7L24,30.7L24,30.7z"/>
		<path class="st0" d="M19.1,31.2c0,0.1,0,0.1,0,0.2L19.1,31.2c0.1,0.3,0.1,0.5,0,0.7c0,0.1,0,0.2,0,0.2c0,0.1,0.1,0.1,0.1,0.2
			s0.1,0.1,0.2,0.1c0.1,0,0.1,0.1,0.2,0c0.2,0,0.3-0.1,0.4-0.2l0.1-0.1c0.1-0.1,0.1-0.2,0.1-0.3c0-0.3,0-0.7-0.1-1
			c0-0.1-0.1-0.1-0.1-0.2c0-0.1-0.1-0.1-0.2-0.2c-0.1,0-0.1-0.1-0.2-0.1c-0.1,0-0.2,0-0.2,0c-0.1,0-0.3,0.1-0.4,0.3
			C19.1,30.9,19.1,31,19.1,31.2L19.1,31.2L19.1,31.2z"/>
		<path class="st0" d="M14.6,30.6c-0.1,0.2-0.2,0.4-0.2,0.7s-0.1,0.5-0.1,0.7c0,0.2,0.1,0.3,0.2,0.4c0.1,0.1,0.3,0.2,0.4,0.2
			s0.3-0.1,0.4-0.2s0.2-0.3,0.2-0.4c0-0.1,0-0.3,0-0.4l0,0.2c0-0.2,0.1-0.4,0.2-0.6l-0.1,0.1v0c0.1-0.1,0.1-0.1,0.1-0.2
			c0-0.1,0-0.2,0-0.2c0-0.1-0.1-0.3-0.3-0.4c-0.1-0.1-0.3-0.1-0.5-0.1l-0.1,0.1C14.7,30.5,14.7,30.5,14.6,30.6
			C14.6,30.6,14.6,30.6,14.6,30.6z"/>
		<path class="st0" d="M9.9,31l-0.1,0.9c0,0.1,0,0.2,0.1,0.2c0,0.1,0.1,0.1,0.1,0.2s0.1,0.1,0.2,0.1c0.1,0,0.1,0.1,0.2,0
			c0.2,0,0.3-0.1,0.4-0.2l0.1-0.1c0.1-0.1,0.1-0.2,0.1-0.3l0.1-0.9c0-0.1,0-0.2-0.1-0.2c0-0.1-0.1-0.1-0.1-0.2
			c-0.1-0.1-0.1-0.1-0.2-0.1c-0.1,0-0.1-0.1-0.2,0c-0.2,0-0.3,0.1-0.4,0.2L10,30.6C9.9,30.7,9.9,30.8,9.9,31L9.9,31z"/>
		<path class="st0" d="M4.8,31c0,0.1,0,0.2,0.1,0.3L4.8,31c0.1,0.4,0.1,0.6,0,0.9c0,0.2,0.1,0.3,0.2,0.4c0.1,0.1,0.3,0.2,0.4,0.2
			s0.3-0.1,0.4-0.2L6,32.2c0.1-0.1,0.1-0.2,0.1-0.3c0-0.4,0-0.8-0.1-1.2c0-0.1-0.2-0.3-0.3-0.4c-0.1-0.1-0.3-0.1-0.5-0.1
			S5,30.4,4.9,30.6C4.8,30.7,4.8,30.9,4.8,31L4.8,31L4.8,31z"/>
		<path class="st0" d="M12.1,34.6c-0.2,0.5-0.2,1.1,0,1.6c0.1,0.2,0.1,0.3,0.3,0.4s0.3,0.1,0.5,0.1s0.3-0.1,0.4-0.3s0.1-0.3,0.1-0.5
			c0-0.1-0.1-0.2-0.1-0.3l0,0.2c0-0.2,0-0.3,0-0.5l0,0.2c0-0.2,0.1-0.3,0.1-0.4s0-0.3-0.1-0.5s-0.2-0.2-0.4-0.3
			c-0.2,0-0.3,0-0.5,0.1l-0.1,0.1C12.2,34.4,12.1,34.5,12.1,34.6C12.1,34.6,12.1,34.6,12.1,34.6z"/>
		<path class="st0" d="M16.7,35v0.8c0,0.2,0.1,0.3,0.2,0.4c0.1,0.1,0.1,0.1,0.2,0.1c0.1,0,0.1,0.1,0.2,0c0.2,0,0.3-0.1,0.4-0.2
			S18,36,18,35.8V35c0-0.2-0.1-0.3-0.2-0.4c-0.1-0.1-0.1-0.1-0.2-0.1c-0.1,0-0.1-0.1-0.2,0c-0.2,0-0.3,0.1-0.4,0.2
			S16.7,34.8,16.7,35L16.7,35z"/>
		<path class="st0" d="M4.1,12.3c-0.5-0.3-1-0.6-1.5-0.9c-0.5-0.4-0.9-0.9-1.1-1.5c-0.1-0.5-0.2-1-0.2-1.5c0-0.2,0-0.4,0-0.7
			c0,0,0-0.4,0-0.3L0.4,7.9C1.1,8.3,1.8,8.8,2.5,9c1.3,0.3,2.6,0,3.9,0L5.9,8.7l1.2,2l1-0.8C7.7,9.4,7.3,8.8,7.1,8.2
			C6.9,7.6,6.9,6.9,6.9,6.3c0-1.2-0.1-2.5,0.1-3.7L5.9,3c1.3,1.1,2.1,2.7,3.9,3.3c0.9,0.3,1.9,0.3,2.8,0.6S14.1,8,14.2,9
			c0.1,0.8,1.4,0.8,1.2,0c-0.3-2.1-1.7-3.2-3.7-3.6c-1.1-0.2-2-0.3-2.9-1.1C8.1,3.6,7.6,2.8,6.8,2.1C6.4,1.7,5.8,2,5.7,2.6
			C5.5,4,5.6,5.4,5.6,6.8c0,0.7,0.1,1.4,0.3,2c0.3,0.7,0.8,1.3,1.3,1.9c0.4,0.6,1.4-0.2,1-0.8L7.4,8.7c-0.4-0.6-0.5-1-1.3-1
			c-1.1,0-2.3,0.4-3.4,0C2.1,7.5,1.6,7.1,1,6.8c-0.3-0.2-0.9,0-0.9,0.4c-0.2,1,0,2.3,0.3,3.3c0.2,0.6,0.6,1.2,1.1,1.7
			c0.6,0.5,1.3,0.8,2,1.2S4.8,12.7,4.1,12.3L4.1,12.3L4.1,12.3z"/>
		<path class="st0" d="M15.4,9.1c-0.2-0.6,1-1.2,1.4-1.5c0.9-0.6,1.7-1.2,2.6-1.8c0.8-0.5,1.5-1,2.2-1.6c0.3-0.3,0.6-0.5,0.9-0.9
			C22.7,3.1,22.9,3,23,2.8c0.1-0.1,0.1-0.2,0.2-0.2c0-0.1,0.1-0.1,0.1-0.2c0.1-0.1,0-0.1-0.1,0h-0.3c-0.1-0.1-0.2-0.1-0.1,0
			c0,0.1,0,0.2,0,0.2c0,0.2,0,0.4,0,0.6c0,0.3-0.1,0.6-0.2,1c-0.2,0.7-0.4,1.3-0.6,2c-0.4,1.3-0.8,2.6-1.5,3.8
			c-0.4,0.7,0.7,1.3,1.1,0.6c0.7-1.4,1.2-2.9,1.7-4.4c0.2-0.8,0.5-1.5,0.6-2.3c0.1-0.7,0.3-1.6-0.1-2.2c-0.4-0.7-1.2-0.6-1.6,0
			s-0.9,1.1-1.4,1.5c-1.2,1-2.6,1.8-3.9,2.7c-1.1,0.8-3.2,1.8-2.8,3.5C14.4,10.2,15.6,9.8,15.4,9.1L15.4,9.1L15.4,9.1z"/>
		<path class="st0" d="M22.7,8.1c0.4-0.4,0.9-0.6,1.5-0.7C24.8,7.3,25.4,7.2,26,7c1.3-0.5,2.5-1.4,3-2.7h-1.2c0.6,1.6,1,3.2,0.2,4.7
			c-0.6,1.2-1.7,2.1-3,2.4c-0.8,0.2-0.5,1.4,0.3,1.2c1.6-0.4,3-1.5,3.8-2.9c0.4-0.8,0.6-1.7,0.6-2.6c0-1.1-0.4-2.1-0.7-3.1
			c-0.2-0.6-1-0.6-1.2,0c-0.4,1.1-1.6,1.8-2.7,2s-2.4,0.4-3.2,1.3C21.3,7.9,22.2,8.8,22.7,8.1L22.7,8.1L22.7,8.1z"/>
		<path class="st0" d="M13.7,6.3c0-0.9,0-1.9,0-2.8c0-0.4,0-0.8,0.2-1.1s0.7-0.4,1.1-0.6c0.5-0.2,0.9-0.3,1.4-0.4
			c0.1,0,0.3,0,0.4-0.1c0.3-0.2,0,0,0,0l-0.1-0.2c-0.1-0.2-0.1-0.3-0.1-0.1c0,0.1,0,0.2,0,0.3c0,0.1,0,0.3-0.1,0.4
			c-0.1,0.8-0.2,1.5-0.2,2.3c-0.1,0.9,0,1.8,0,2.7c0,0.8,1.2,0.8,1.2,0c0-0.9,0-1.9,0.1-2.8s0.2-1.8,0.3-2.7c0.1-0.7-0.3-1.2-1-1.1
			c-0.6,0.1-1.2,0.3-1.7,0.4c-1.1,0.3-2.2,0.8-2.5,2c-0.2,0.6-0.1,1.3-0.1,1.9s0,1.3,0,1.9C12.5,7.1,13.7,7.1,13.7,6.3L13.7,6.3
			L13.7,6.3z"/>
	</g>
</g>
</svg>
