<?xml version="1.0" encoding="utf-8"?>
<!-- Generator: Adobe Illustrator 28.0.0, SVG Export Plug-In . SVG Version: 6.00 Build 0)  -->
<svg version="1.1" id="_圖層_2" xmlns="http://www.w3.org/2000/svg" xmlns:xlink="http://www.w3.org/1999/xlink" x="0px" y="0px"
	 viewBox="0 0 36.4 38.5" style="enable-background:new 0 0 36.4 38.5;" xml:space="preserve">
<style type="text/css">
	.st0{fill:none;stroke:#2A1038;stroke-miterlimit:10;}
	.st1{fill:none;stroke:#2A1038;stroke-linecap:round;stroke-linejoin:round;stroke-miterlimit:10;}
	.st2{fill:none;stroke:#2A1038;stroke-linecap:round;stroke-linejoin:round;}
</style>
<path class="st0" d="M8.8,15.8c0-0.8,0.4-1.6,0.9-2.2c1-1.1,2.7-1.4,4-0.8c1.3,0.6,2.1,1.9,2,3.3c-0.1,1.6-1.3,3-2.9,3.2
	c-1.4,0.2-2.9-0.4-3.6-1.7C8.9,17.1,8.7,16.4,8.8,15.8z"/>
<path class="st1" d="M10,11C9.4,9.8,8.7,9.6,7.8,8.7c-0.9-1-1.3-1-1.8-2.3c-0.4-1-0.6-2.1-0.8-3.2C5.1,2.5,5.1,1.7,4.9,1
	C4.7,0.2,4,0.6,3.7,1C3,1.8,2.4,2.6,1.8,3.4C1.3,4,0.5,4.8,0.7,5.7C0.7,6,0.9,6.3,1,6.5c0.2,0.6,0.5,1.2,0.8,1.7
	c0.7,1.4,0.9,1.8,2.1,2.9c0.5,0.4,1,0.8,1.6,1.2c0.5,0.3,1.2,0.8,1.8,1"/>
<path class="st0" d="M18.2,8.6c1.1-1.8,1.2-3.4,0.3-5.3c-0.5-1-1.2-3-2.3-2.7c-0.5,0.2-1,1.6-1.6,2.9c-0.6,1.2-2.6,3.8-2.8,4
	c-0.6,0.9-1,1.6-1.6,2.5c-0.3,0.5,0.1,2.6,0.3,2.7"/>
<path class="st0" d="M16.5,1"/>
<path class="st1" d="M31.7,33.4C32,34,32,34.2,32,34.7c0,1.6-1.4,3-3,3c-1.1,0-2-0.6-2.6-1.4l0,0c-0.3-0.5-0.5-1-0.5-1.6
	c0-0.5,0.1-0.9,0.3-1.3c0.1-0.3,0.3-0.6,0.5-0.8"/>
<path class="st0" d="M31.4,30.1c0,0.8-0.3,1.5-0.9,2.1l-0.1,0.1c-0.5,0.5-1.2,0.8-2,0.8c-0.6,0-1.1-0.2-1.5-0.4
	c-0.6-0.4-1-0.9-1.3-1.6c-0.1-0.4,0-0.7,0-1c0-0.2,0-0.5-0.1-0.7c1.1-0.3,2.1-1.4,2.5-2.5c0.2,0,0.6,1.7,2.6,1.7c0.1,0,0.2,0,0.4,0
	C31.3,29,31.4,29.6,31.4,30.1z"/>
<path class="st0" d="M16.7,29.4c0,0.3-0.1,0.8-0.1,0.9c-0.3,1.1-1.1,2.1-2.2,2.5C14,32.9,13.6,33,13.1,33c-2,0-3.6-1.6-3.6-3.6
	c0-0.1,0,0,0-0.1c0,0.1,1.2-0.2,1.3-0.3c0.4-0.2,0.8-0.4,1.1-0.7c0.6-0.7,0.9-1.5,1-2.4c1.7,0.4,3.8,1.4,3.9,3.4
	C16.7,29.3,16.7,29.4,16.7,29.4z"/>
<path class="st0" d="M20.8,35.2c-0.6,1-1.8,1.6-3.1,1.6c-1.9,0-3.4-1.5-3.4-3.4c0-0.2,0-0.5,0.1-0.7"/>
<path class="st0" d="M18.7,30.1c0.4,0.1,0.7,0.2,1,0.4c0.7,0.5,1.3,1.1,1.5,2"/>
<path class="st1" d="M17.6,23.1L17.6,23.1c0.4,1.2,1.8,2.1,3.2,2.3c0.3,0.7,0.2,1.5,0.1,2.2l0,0c-0.1,0.5-0.2,1-0.6,1.5
	c-0.2,0.2-0.4,0.4-0.6,0.6c-0.3,0.2-0.6,0.4-1,0.5c-0.6,0.2-1.3,0.2-2,0"/>
<path class="st1" d="M16.7,29.4c0-1.9-1.8-3.2-3.8-3.5"/>
<path class="st0" d="M26.5,36.3L26.5,36.3C26,37.3,25,38,23.8,38c-1.6,0-3-1.3-3-2.8c0.3-0.5,0.5-1.1,0.5-1.7l0,0
	c0-0.3,0.1-0.5,0-0.8c0.2,0.1,1,0.4,1.4,0.4c0.8,0,1.6-0.3,2.1-0.8c0.4-0.4,0.6-0.8,0.8-1.3"/>
<path class="st0" d="M28.1,26.1c0,1.2-0.7,2.4-1.8,3c-0.2,0.1-0.4,0.2-0.7,0.3c-0.4,0.1-0.7,0.1-1.1,0.1c-1.5,0-2.7-0.9-3.2-2.2
	c-0.1-0.4-0.2-0.8-0.2-1.2c0-0.2-0.2-0.5-0.1-0.7c1.6,0,3.4-2.1,3.9-2.6c0.1-0.1,0.2-0.1,0.3-0.1c1.2,0.2,2.2,1.1,2.7,2.3
	C28,25.3,28.1,25.7,28.1,26.1z"/>
<path class="st0" d="M22.1,17.8c0,0.4-0.2,0.8-0.3,1.1c-0.6,1.2-2,1.9-3.5,1.8c-0.2,0-0.5-0.1-0.5-0.1c-1.3-0.3-2.9-2.1-2.8-2.7"/>
<path class="st1" d="M20.2,10.1c0.7-0.6,1.3-0.9,2.3-0.8c1.8,0,3.3,1.7,3.1,3.6l0,0c0,0.4-0.3,1.2-0.3,1.3c-1.5,2.3-3.4,1.8-3.5,1.6
	c-0.4-0.5-1.1-1.4-1.8-1.7c-0.1,0-0.1-0.1-0.2-0.1"/>
<path class="st0" d="M17.9,21.7c0,0.5-0.1,0.9-0.4,1.3c-0.6,1.2-1.9,2-3.3,1.9c-0.2,0-1.3-0.3-1.6-0.5c-1-0.7-1.7-1.8-1.7-3
	c0-0.7,0.2-1.5,0.7-2c0.1,0,0.2,0,0.3,0c2.1-0.1,3-1.3,3-1.3c0.4,1.1,2.7,2.5,2.7,2.5C17.9,21.2,17.9,21.3,17.9,21.7z"/>
<path class="st2" d="M12.6,24.5L12.6,24.5c0.1,0.5,0.2,1,0.2,1.4l0,0c0,0.1,0,0.1,0,0.2c-0.1,1.3-0.9,2.5-2.1,2.9
	c-0.3,0.1-0.5,0.2-0.8,0.2c-0.1,0-0.2,0-0.3,0H9.5c-0.1,0-0.2,0-0.3,0c-1.9-0.1-3.4-1.7-3.3-3.6c0-0.6,0.2-1.1,0.5-1.6"/>
<path class="st2" d="M5.4,17.9c-0.6,0-1.2,0-1.8,0c-1.3-0.1-2.3-0.5-2.9-1.3c3.5,0,6.3-3.3,6.7-3.3c1-0.6,2-0.8,2.6-0.1
	c-0.4,0.5-0.7,1-1,1.5c-0.3,0.6-0.4,1.4-0.2,2.1"/>
<path class="st0" d="M10.9,21.7c-0.5,1.6-2.4,2.5-3.5,2.4c-0.3,0-0.7-0.1-1-0.2C5,23.5,4,22.1,4.1,20.6c0.1-1.1,0.6-2,1.4-2.6
	c0.6-0.5,1.4-0.7,2.3-0.6c0.1,0,0.1,0,0.2,0c0.5,0,0.9,0.2,1.3,0.4"/>
<path class="st0" d="M25.3,20.8c-0.2,0-0.6-0.1-0.6-0.1c-1-0.2-1.9-0.9-2.3-1.8c-0.2-0.4-0.5-2.5-0.6-2.8h0.1c0.1,0,0.2,0,0.3,0
	c2.3-0.1,3.2-2.3,3.3-2.3c1,0,2,0.6,2.7,1.4c0.7,0.8,1,2,0.7,3.1c-0.3,1-1.2,1.8-2.2,2.3C26.3,20.7,25.8,20.8,25.3,20.8z"/>
<path class="st1" d="M24,23.9c0,0,0.9-1.2,0.5-2.9c0-0.2,0.1-0.3,0.3-0.3c0.6,0.1,1.2,0.1,1.9-0.1c0.6-0.2,1.2-0.7,1.6-1.2
	c0.3-0.3,0.5-0.7,0.6-1.1c0-0.1,0.2-0.2,0.3-0.2c1.8,0.3,2.9,1.7,2.9,3.4c0,0.5-0.1,0.9-0.3,1.3c-0.6,1.3-1.9,2.2-3.5,2.2
	c-0.1,0-0.1,0-0.2,0"/>
<path class="st0" d="M20.5,12c-0.1,0.4-0.1,0.8-0.3,1.2c-0.6,1.3-2.1,2.1-3.5,2c-1.1-0.1-1.5-1-1.5-1.1c-0.2-0.4-0.5-0.7-0.9-1
	c-0.2-0.1-0.3-0.2-0.5-0.3c-0.1-0.1-0.4-0.2-0.5-0.3c0,0,0-0.1,0-0.1c0-0.3,0-0.5,0-0.8c0-0.7,0.4-1.5,0.8-2C14.6,9,15.3,8.6,16,8.5
	c1-0.2,2,0,2.8,0.6C19.8,9.7,20.7,10.8,20.5,12z"/>
<path class="st2" d="M35.9,30.6c0,1.6-1.4,3-3,3c-0.4,0-0.8-0.1-1.2-0.2c-0.3-0.5-0.6-0.8-1.1-1.1c0.5-0.5,0.9-1.3,0.9-2.1
	c0-0.5-0.1-1.1-0.4-1.5h0.1c0.9,0,1.7-0.4,2.2-1C34.8,27.8,35.9,29.1,35.9,30.6L35.9,30.6z"/>
<path class="st0" d="M34.1,25.6c0,0.8-0.3,1.5-0.8,2c-0.5,0.6-1.4,1-2.2,1H31c-0.1,0-0.2,0-0.4,0c-0.9-0.1-2.2-0.8-2.6-1.6
	c0,0,0-0.1,0-0.3c0-0.2,0.1-0.3,0.1-0.6c0-0.4-0.1-0.8-0.2-1.1c0.1,0,0.2,0,0.3,0c0.1,0,0.1,0,0.2,0c1.6,0,2.9-0.9,3.5-2.2
	C33.2,23.1,34.1,24.2,34.1,25.6z"/>
</svg>
