<?xml version="1.0" encoding="utf-8"?>
<!-- Generator: Adobe Illustrator 28.0.0, SVG Export Plug-In . SVG Version: 6.00 Build 0)  -->
<svg version="1.1" id="_圖層_2" xmlns="http://www.w3.org/2000/svg" xmlns:xlink="http://www.w3.org/1999/xlink" x="0px" y="0px"
	 viewBox="0 0 30.2 37.3" style="enable-background:new 0 0 30.2 37.3;" xml:space="preserve">
<style type="text/css">
	.st0{fill:none;stroke:#DD3F5B;stroke-linecap:round;stroke-linejoin:round;stroke-miterlimit:10;}
	.st1{fill:none;stroke:#DD3F5B;stroke-linecap:round;stroke-linejoin:round;}
</style>
<path class="st0" d="M12.6,11.8c-0.4-1.2-1.6-4-1.7-5.2c-0.1-0.8,0.2-4.2,0.3-5c0.2-0.9,0.7-1,1.5-1c0.8,0.1,2.4,0.1,3,0
	c0.5-0.1,0.6,1,0.4,2.1c-0.2,1.2-0.4,2.3-0.6,3.5C15.4,7.1,15.3,8,15,8.8c-0.1,0.4-0.2,0.8-0.4,1.1c-0.3,0.4-0.6,0.8-0.9,1.2"/>
<path class="st0" d="M12,10.3c-1-0.8-2.6-2.2-3.7-2.9S7.1,6.6,5.9,6.1C5,5.7,3.8,5.2,3.4,4.2C3.1,3.5,2,3.5,2,4.4
	c0,1.2,0.4,2.9,1.1,3.9c2.4,3.4,6.6,3.3,7.8,3.2"/>
<path class="st0" d="M13.2,11.9c-0.4-0.3,4.7-4.1,5.8-4.6c1.4-0.7,3.4-2,4.1-3.5c0.2-0.5,1-0.5,1.3,0c0.4,0.7,0.4,1.5,0.3,2.3
	c0,0.1,0,0.3,0,0.3c-0.4,2.5-1.7,4-3.8,5.3"/>
<path class="st0" d="M5.3,17.1L5.3,17.1c-0.4-0.2-0.8-0.4-1.3-0.4c-0.8,0-1.6,0.4-2.1,1.1c-0.8-0.5-1.4-1.5-1.4-2.6
	c0-1.7,1.2-3,2.7-3c0.6,0,1.1,0.2,1.6,0.6c-0.4,0.5-0.6,1.2-0.6,1.9C4.2,15.6,4.6,16.5,5.3,17.1z"/>
<path class="st0" d="M13.4,31.7c-0.2,0.2-0.4,0.4-0.5,0.7l0,0c-0.2,0.4-0.4,1-0.4,1.5c0,0.1,0,0.2,0,0.3c-0.5,0.8-1.3,1.3-2.3,1.3
	c-1.5,0-2.7-1.2-2.7-2.7c0-0.3,0-0.5,0.1-0.7c0.3-1,1.1-1.7,2.1-1.9c0.1,0.2,0.1,0.3,0.2,0.5c0.5,0.8,1.3,1.4,2.3,1.4
	c0.2,0,0.4,0,0.5-0.1C13,31.8,13.2,31.8,13.4,31.7L13.4,31.7z"/>
<path class="st0" d="M22.7,32.7c0,1.7-1.2,3-2.7,3c-0.9,0-1.7-0.5-2.2-1.2c0-0.2,0.1-0.4,0.1-0.6c0-0.7-0.2-1.3-0.5-1.8l0,0V32l0,0
	c1,0,2-0.7,2.4-1.6c0.1-0.2,0.2-0.4,0.2-0.6c1.3,0,2.4,1,2.6,2.4C22.7,32.3,22.7,32.5,22.7,32.7z"/>
<path class="st0" d="M17.8,34.5c-0.3,1.3-1.3,2.3-2.6,2.3c-1.4,0-2.6-1.2-2.7-2.7c0-0.1,0-0.2,0-0.3c0-0.5,0.1-1.1,0.4-1.5l0,0
	c0.1-0.3,0.3-0.5,0.5-0.7c0.3-0.1,0.5-0.3,0.7-0.5c0.3-0.2,0.7-0.3,1.1-0.3h0.1c0.8,0,1.5,0.5,2,1.1c0,0,0,0.1,0.1,0.1l0,0
	c0.3,0.5,0.5,1.1,0.5,1.8C17.9,33.8,17.9,34.3,17.8,34.5z"/>
<path class="st0" d="M9.5,28.9c0,0.4,0.1,0.8,0.2,1.1c-1,0.2-1.8,0.9-2.1,1.9c-1.5,0-2.6-1.4-2.6-3c0-0.6,0.2-1.2,0.5-1.7
	C5.9,26.5,6.7,26,7.7,26c0.2,0,0.3,0,0.4,0c0.1,0,0.2,0,0.3,0.1c0.5,0.2,0.9,0.5,1.3,0.9c0.1,0.1,0.2,0.2,0.2,0.4
	C9.7,27.8,9.5,28.4,9.5,28.9z"/>
<path class="st1" d="M20.1,29c0,0.2,0,0.5-0.1,0.7s-0.1,0.5-0.2,0.6c-0.5,1-1.4,1.6-2.4,1.6l0,0h-0.1c-0.5-0.7-1.2-1.1-2-1.1h-0.1
	c-0.4,0-0.8,0.1-1.1,0.3c0.3-0.4,0.6-0.8,0.7-1.3c0.1-0.3,0.1-0.6,0.1-0.9s0-0.5-0.1-0.8c-0.1-0.5-0.3-0.9-0.6-1.2
	c0.3,0.2,0.7,0.3,1.1,0.3h0.1c0.9,0,1.7-0.5,2.1-1.2c0.1,0,0.1,0,0.2,0c0.8,0.1,1.5,0.6,1.9,1.3c0.1,0.2,0.2,0.3,0.2,0.5
	C20,28.1,20.1,28.5,20.1,29z"/>
<path class="st0" d="M26.2,14.5c0,0.8-0.3,1.6-0.8,2.1c-0.1,0.1-0.2,0.2-0.4,0.3c-0.2,0.1-0.4,0.2-0.6,0.3c-0.1,0.1-0.3,0.1-0.4,0.1
	c-0.5-0.7-1.2-1.1-2.1-1.1c-0.1,0-0.2,0-0.3,0c0.4-0.5,0.7-1.2,0.7-2s-0.3-1.5-0.7-2c0.5-0.5,1.1-0.9,1.9-0.9s1.6,0.4,2.1,1.1
	C25.9,13.1,26.2,13.8,26.2,14.5z"/>
<path class="st0" d="M24.6,19.4c0,0.7-0.2,1.3-0.5,1.8c0,0,0,0,0,0.1c-0.5,0.7-1.2,1.1-2,1.1c0,0,0,0-0.1,0
	c-0.5-0.7-1.2-1.1-2.1-1.1h-0.1c-0.1-0.1-0.1-0.2-0.2-0.3c0.3-0.5,0.5-1.1,0.5-1.8c0-0.6-0.1-1.1-0.4-1.6c0-0.1-0.1-0.1-0.1-0.2
	c0.1,0,0.2,0,0.3,0c0.6-0.1,1.2-0.4,1.6-0.9c0,0,0.1-0.1,0.1-0.2c0.1,0,0.2,0,0.3,0c0.8,0,1.6,0.4,2.1,1.1c0,0.1,0.1,0.1,0.1,0.2
	l0,0C24.4,18.2,24.6,18.8,24.6,19.4z"/>
<path class="st0" d="M22.3,14.4c0,0.8-0.2,1.4-0.7,2c0,0.1-0.1,0.1-0.1,0.2c-0.4,0.5-1,0.8-1.6,0.9c-0.1,0-0.2,0-0.3,0l0,0
	c-0.9,0-1.7-0.5-2.2-1.2l-0.1-0.1c0.3-0.5,0.5-1.1,0.5-1.7s-0.2-1.1-0.4-1.6c0.5-0.8,1.3-1.3,2.2-1.3c0.8,0,1.5,0.4,2,1
	C22,12.9,22.3,13.7,22.3,14.4z"/>
<path class="st1" d="M13.4,26.2c-0.2-0.1-0.5-0.2-0.8-0.3c-0.1,0-0.2,0-0.3,0c-0.9,0-1.6,0.5-2.1,1.2c-0.1,0.1-0.1,0.2-0.2,0.3
	c-0.1-0.1-0.1-0.2-0.2-0.4c-0.3-0.4-0.8-0.7-1.3-0.9c-0.1-0.1-0.1-0.2-0.2-0.3l0,0c-0.3-0.5-0.5-1.1-0.5-1.7c0-0.5,0.1-1,0.4-1.5
	c0.1-0.1,0.1-0.2,0.2-0.3c0.5-0.7,1.3-1.2,2.1-1.2l0,0c0.1,0,0.1,0,0.2,0c0.4,0.7,1.2,1.2,2,1.2l0,0c0.1,0.2,0.2,0.4,0.3,0.5l0,0
	c-0.2,0.4-0.2,0.8-0.2,1.3s0.1,0.9,0.2,1.2l0,0C13,25.7,13.2,26,13.4,26.2L13.4,26.2z"/>
<path class="st0" d="M14.2,26.9c0.3,0.3,0.5,0.8,0.6,1.2c0.1,0.3,0.1,0.5,0.1,0.8s0,0.6-0.1,0.9c-0.1,0.5-0.4,1-0.7,1.3
	c-0.2,0.2-0.4,0.4-0.7,0.5c-0.2,0.1-0.4,0.2-0.6,0.2c-0.2,0-0.4,0.1-0.5,0.1c-1,0-1.8-0.6-2.3-1.4c-0.1-0.1-0.2-0.3-0.2-0.5
	c-0.1-0.4-0.2-0.7-0.2-1.1c0-0.6,0.1-1.1,0.4-1.6c0.1-0.1,0.1-0.2,0.2-0.3c0.5-0.7,1.3-1.2,2.1-1.2c0.1,0,0.2,0,0.3,0
	c0.3,0,0.5,0.1,0.8,0.2C13.7,26.4,13.9,26.6,14.2,26.9z"/>
<path class="st0" d="M17.9,24.1c0,0.6-0.2,1.1-0.4,1.6c0,0.1-0.1,0.1-0.1,0.2c-0.5,0.7-1.2,1.2-2.1,1.2c0,0,0,0-0.1,0
	c-0.4,0-0.7-0.1-1-0.3c-0.3-0.1-0.6-0.4-0.8-0.6s-0.4-0.5-0.5-0.8l0,0c-0.2-0.4-0.2-0.8-0.2-1.2s0.1-0.9,0.2-1.2l0,0
	c0.1-0.2,0.2-0.4,0.3-0.6c0.4-0.6,1-1,1.6-1.1c0.1,0,0.3,0,0.4,0h0.1l0,0c0.4,0.6,1.2,1,1.9,1c0.1,0.1,0.1,0.3,0.2,0.4
	C17.8,23,17.9,23.6,17.9,24.1L17.9,24.1z"/>
<path class="st0" d="M13,16.1c-0.1,0.1-0.1,0.1-0.1,0.2c-0.5,0.7-1.2,1.2-2.1,1.2h-0.1c-0.1,0-0.1,0-0.2,0c-0.6-0.1-1.2-0.4-1.6-0.9
	c-0.1-0.1-0.2-0.2-0.2-0.3C8.2,15.8,8,15.2,8,14.5c0-0.8,0.3-1.5,0.7-2c0.5-0.6,1.2-1,2-1c0.9,0,1.7,0.5,2.2,1.2
	c-0.3,0.5-0.4,1-0.4,1.6C12.5,15,12.7,15.6,13,16.1z"/>
<path class="st1" d="M29.7,15.1c0,1.1-0.5,2-1.3,2.6c-0.5-0.7-1.3-1.2-2.1-1.2c-0.3,0-0.7,0.1-1,0.2c0.5-0.5,0.8-1.3,0.8-2.1
	c0-0.7-0.2-1.4-0.6-1.9c0.4-0.3,1-0.5,1.5-0.5C28.5,12.1,29.7,13.4,29.7,15.1z"/>
<path class="st0" d="M24.9,29.1c0,1.5-1,2.8-2.3,3c-0.2-1.4-1.3-2.4-2.6-2.4c0-0.2,0.1-0.5,0.1-0.7c0-0.4-0.1-0.9-0.2-1.2
	c-0.1-0.2-0.1-0.3-0.2-0.5c0.1,0,0.2,0,0.3,0c0.1,0,0.2,0,0.2,0c0.8-0.1,1.4-0.5,1.9-1.1l0,0l0,0c0.1,0,0.1,0,0.2,0
	c0.8,0,1.6,0.4,2.1,1.1C24.7,27.7,24.9,28.4,24.9,29.1z"/>
<path class="st0" d="M29,19.5c0,1.6-1.2,3-2.7,3c-0.5-0.8-1.3-1.2-2.2-1.2l0,0H24c0,0,0,0,0-0.1c0.3-0.5,0.5-1.1,0.5-1.8
	c0-0.6-0.2-1.2-0.5-1.7l0,0c0-0.1-0.1-0.1-0.1-0.2c0.1,0,0.3-0.1,0.4-0.1c0.2-0.1,0.4-0.2,0.6-0.3c0.1-0.1,0.2-0.2,0.4-0.3
	c0.3-0.1,0.6-0.2,1-0.2c0.9,0,1.6,0.5,2.1,1.2C28.8,18.2,29,18.8,29,19.5z"/>
<path class="st0" d="M8,14.5c0,0.7,0.2,1.3,0.6,1.8c-0.1,0-0.2,0-0.3,0c-0.9,0-1.7,0.5-2.1,1.2c-0.1,0.1-0.1,0.1-0.2,0.2
	c-0.2-0.3-0.5-0.5-0.8-0.7l0,0c-0.7-0.5-1.1-1.4-1.1-2.4c0-0.7,0.2-1.4,0.6-1.9c0.5-0.7,1.2-1.1,2.1-1.1c0.8,0,1.4,0.3,1.9,0.9
	C8.3,13,8,13.7,8,14.5z"/>
<path class="st0" d="M6.3,21.4L6.3,21.4c-0.2,0-0.3,0-0.5,0c-0.9,0-1.8,0.5-2.2,1.4c-1.3-0.2-2.3-1.5-2.3-3c0-0.7,0.2-1.4,0.6-1.9
	c0.5-0.7,1.3-1.1,2.1-1.1c0.5,0,0.9,0.1,1.3,0.4c0.3,0.2,0.6,0.4,0.8,0.7c-0.2,0.5-0.4,1-0.4,1.6C5.6,20.1,5.9,20.8,6.3,21.4
	C6.3,21.3,6.3,21.3,6.3,21.4z"/>
<path class="st0" d="M8.4,26.1c-0.1,0-0.2-0.1-0.3-0.1c-0.1,0-0.3,0-0.4,0c-0.9,0-1.7,0.5-2.2,1.3c-1.3-0.2-2.3-1.5-2.3-3
	c0-0.6,0.2-1.2,0.4-1.6c0.5-0.8,1.3-1.4,2.3-1.4c0.1,0,0.2,0,0.4,0h0.1c0.4,0.5,0.9,0.8,1.5,0.9c0.1,0,0.3,0,0.4,0
	c-0.1,0.1-0.1,0.2-0.2,0.3c-0.2,0.4-0.3,1-0.3,1.5c0,0.6,0.2,1.2,0.5,1.7l0,0C8.3,25.9,8.3,26,8.4,26.1z"/>
<path class="st0" d="M10.6,17.7c-0.3,0.5-0.5,1.1-0.5,1.7s0.2,1.2,0.4,1.6c0,0,0,0.1-0.1,0.1l0,0c-0.9,0-1.7,0.5-2.2,1.2
	c-0.1,0-0.3,0-0.4,0c-0.6-0.1-1.1-0.5-1.5-0.9c0,0-0.1,0-0.1-0.1c-0.4-0.5-0.7-1.2-0.7-2c0-0.6,0.2-1.1,0.4-1.6
	C6,17.6,6,17.5,6.1,17.5c0.5-0.7,1.3-1.2,2.1-1.2c0.1,0,0.2,0,0.3,0c0.1,0.1,0.1,0.2,0.2,0.3c0.4,0.5,1,0.8,1.6,0.9
	c0.1,0,0.1,0,0.2,0C10.6,17.6,10.6,17.6,10.6,17.7z"/>
<path class="st0" d="M15.4,21.2h-0.1c-0.1,0-0.3,0-0.4,0c-0.7,0.1-1.3,0.5-1.7,1.1c-0.1,0.2-0.2,0.4-0.3,0.6
	c-0.1-0.2-0.2-0.4-0.3-0.5l0,0c-0.8-0.1-1.5-0.5-2-1.2l-0.1-0.1c-0.3-0.5-0.4-1-0.4-1.6s0.2-1.2,0.5-1.7l0.1-0.1h0.1
	c0.9,0,1.6-0.5,2.1-1.2c0.1-0.1,0.1-0.1,0.1-0.2c0.1,0.1,0.1,0.2,0.2,0.3c0.4,0.5,0.9,0.8,1.5,0.9c0.1,0,0.3,0,0.4,0
	c0.1,0,0.1,0,0.2,0c-0.1,0.1-0.2,0.3-0.3,0.5c-0.2,0.4-0.3,0.9-0.3,1.4c0,0.6,0.1,1.1,0.4,1.6C15.2,20.9,15.3,21.1,15.4,21.2z"/>
<path class="st0" d="M26.8,24.2c0.1,1.3-0.8,2.7-2.2,3c-0.1,0-0.2,0-0.3,0c-0.5-0.7-1.2-1.1-2.1-1.1c-0.1,0-0.1,0-0.2,0l0,0
	c0.4-0.5,0.6-1.1,0.6-1.8c0-0.3,0-0.6-0.1-0.9s-0.2-0.6-0.4-0.8L22,22.5c0,0,0,0,0.1,0c0.3,0,0.6-0.1,0.8-0.2s0.5-0.3,0.7-0.4
	s0.3-0.3,0.5-0.5h0.1c0.9,0,1.7,0.5,2.2,1.3c0.2,0.4,0.3,0.8,0.4,1.3C26.8,23.9,26.8,24.1,26.8,24.2z"/>
<path class="st0" d="M22.6,24.3c0,0.7-0.2,1.3-0.6,1.8l0,0c-0.5,0.6-1.1,1-1.9,1.1c-0.1,0-0.2,0-0.2,0c-0.1,0-0.2,0-0.3,0
	c-0.4-0.7-1.1-1.2-1.9-1.3c-0.1,0-0.1,0-0.2,0c0-0.1,0.1-0.1,0.1-0.2c0.3-0.5,0.4-1,0.4-1.6c0-0.5-0.1-1.1-0.4-1.5
	c-0.1-0.2-0.2-0.3-0.3-0.5h0.1c0.2,0,0.4,0,0.6-0.1c0.5-0.1,0.9-0.4,1.3-0.8c0.1-0.1,0.2-0.3,0.3-0.4c0.1,0.1,0.1,0.2,0.2,0.3h0.1
	c0.4,0,0.8,0.1,1.2,0.3s0.7,0.5,0.9,0.9c0.3,0.4,0.4,0.8,0.5,1.2C22.6,23.9,22.6,24.1,22.6,24.3z"/>
<path class="st0" d="M20.1,19.2c0,0.6-0.2,1.3-0.5,1.8c-0.1,0.1-0.2,0.3-0.3,0.4C19,21.7,18.5,22,18,22.1c-0.2,0-0.4,0.1-0.6,0.1
	h-0.1c-0.8,0-1.4-0.4-1.9-1l0,0c-0.1-0.1-0.2-0.3-0.3-0.4c-0.3-0.5-0.4-1-0.4-1.6c0-0.5,0.1-1,0.3-1.4c0.1-0.2,0.2-0.3,0.3-0.5
	c0.8-0.1,1.4-0.5,1.9-1.1l0,0l0.1-0.1c0,0,0,0.1,0.1,0.1c0.5,0.8,1.3,1.2,2.2,1.2l0,0c0,0.1,0.1,0.1,0.1,0.2
	C20,18.1,20.1,18.6,20.1,19.2L20.1,19.2z"/>
<path class="st0" d="M17.8,14.4c0,0.6-0.2,1.2-0.5,1.7l-0.1,0.1l0,0c-0.4,0.6-1.1,1.1-1.9,1.1c-0.1,0-0.1,0-0.2,0
	c-0.1,0-0.3,0-0.4,0c-0.6-0.1-1.1-0.4-1.5-0.9c-0.1-0.1-0.1-0.2-0.2-0.3c-0.3-0.5-0.5-1.1-0.5-1.8c0-0.6,0.1-1.1,0.4-1.6
	c0.5-0.8,1.3-1.4,2.3-1.4s1.8,0.6,2.3,1.4C17.7,13.2,17.8,13.7,17.8,14.4L17.8,14.4z"/>
</svg>
